<svg height="1072" width="1080" xmlns="http://www.w3.org/2000/svg" version="1.1">
<path transform="translate(719,98)" fill="#000000" d="M0 0 C0.66 0 1.32 0 2 0 C2.3403125 0.969375 2.680625 1.93875 3.03125 2.9375 C6.65076101 13.03396374 10.96373695 22.53645651 16 32 C16.34401855 32.65468262 16.68803711 33.30936523 17.04248047 33.98388672 C25.03860531 49.10755967 34.82004797 63.05587205 46 76 C47.03833984 77.20462891 47.03833984 77.20462891 48.09765625 78.43359375 C59.18675969 91.01197787 71.00093638 102.66729092 85 112 C83.5382855 116.41780751 81.09052444 119.63257018 78.1875 123.1875 C69.45086782 134.23520329 64.67392485 145.40701311 65.67114258 159.75146484 C67.48712212 172.1680733 72.92420828 184.21178098 77.33453369 195.87637329 C79.47317416 201.53421953 81.59294856 207.19913841 83.71484375 212.86328125 C84.15344727 214.03281845 84.59205078 215.20235565 85.04394531 216.40733337 C89.64222878 228.68311551 94.13922124 240.99525723 98.625 253.3125 C100.21294592 257.6694882 101.8015399 262.02623966 103.390625 266.3828125 C103.77849686 267.44619339 104.16636871 268.50957428 104.56599426 269.60517883 C108.47341032 280.30999202 112.41949531 291.00037847 116.375 301.6875 C116.88821808 303.07424927 116.88821808 303.07424927 117.4118042 304.48901367 C117.75592346 305.41883057 118.10004272 306.34864746 118.45458984 307.30664062 C119.15983832 309.21223677 119.86507913 311.11783576 120.5703125 313.0234375 C120.92447235 313.98034485 121.2786322 314.9372522 121.64352417 315.92315674 C126.1915303 328.21498962 130.72035116 340.5138933 135.25 352.8125 C135.69003357 354.00716888 136.13006714 355.20183777 136.58343506 356.43270874 C138.8259406 362.52100744 141.06829379 368.60936223 143.31054688 374.69775391 C147.27146926 385.45259409 151.2338824 396.20688503 155.19619751 406.96121216 C156.49307427 410.48120213 157.78988369 414.00121691 159.08666992 417.52124023 C163.18163566 428.63662915 167.27694854 439.75188989 171.37332153 450.86676025 C173.06888013 455.46740238 174.76428565 460.06810091 176.45965767 464.6688118 C177.61490312 467.80375091 178.77026343 470.93864759 179.92578125 474.07348633 C181.20203584 477.53589162 182.47800017 480.99840376 183.75390625 484.4609375 C184.12588638 485.46986053 184.49786652 486.47878357 184.88111877 487.51828003 C185.23431686 488.47694977 185.58751495 489.43561951 185.95141602 490.42333984 C186.25225601 491.23958832 186.55309601 492.05583679 186.86305237 492.89682007 C187.93683634 495.82760138 189.00463821 498.76048149 190.07105923 501.69394875 C190.43205005 502.6868849 190.79304088 503.67982105 191.16497082 504.70284617 C191.44053045 505.46090693 191.71609008 506.2189677 192 507 C192.04585087 469.34295915 192.08105641 431.68592253 192.10213066 394.02885938 C192.10463185 389.57571741 192.10722052 385.12257549 192.10986328 380.66943359 C192.1103879 379.78295198 192.11091252 378.89647037 192.11145304 377.98312567 C192.12013832 363.65898811 192.13589788 349.33486673 192.15430559 335.01073875 C192.173057 320.29563136 192.18412777 305.58053239 192.18817699 290.86541355 C192.19091121 281.79694077 192.19952398 272.72851372 192.21583293 263.66005503 C192.22646462 257.42817402 192.22958674 251.19631641 192.22700275 244.96442701 C192.22573101 241.37744381 192.22757855 237.79054011 192.23841095 234.20357132 C192.35658371 192.94807037 185.38488459 156.50265404 159.64624023 123.22851562 C159.07204346 122.48537109 158.49784668 121.74222656 157.90625 120.9765625 C157.39384766 120.32768066 156.88144531 119.67879883 156.35351562 119.01025391 C154.84445749 116.76898683 153.92080493 114.53331236 153 112 C153.64324219 111.48953125 154.28648437 110.9790625 154.94921875 110.453125 C162.61415214 104.28618858 169.86324405 97.76598391 177 91 C178.13115234 89.93265625 178.13115234 89.93265625 179.28515625 88.84375 C184.67408676 83.61552318 189.3320231 77.87090774 194 72 C194.87554924 70.92646889 195.75187417 69.85357003 196.62890625 68.78125 C213.40325125 48.09750225 226.28315044 24.7493874 236 0 C236.66 0 237.32 0 238 0 C238.27561768 0.68288086 238.55123535 1.36576172 238.83520508 2.06933594 C256.77482265 46.22498092 282.66196536 83.21642853 321 112 C319.73376044 115.48538705 318.28561274 118.21998434 316.0234375 121.15234375 C315.43900879 121.92118896 314.85458008 122.69003418 314.25244141 123.48217773 C313.63288574 124.29243408 313.01333008 125.10269043 312.375 125.9375 C300.00123651 142.50034716 291.36453415 159.94212698 286.125 180 C285.93397705 180.70850098 285.7429541 181.41700195 285.54614258 182.14697266 C281.79629147 197.66676458 281.70066447 214.01368977 281.7253418 229.88867188 C281.72097913 231.78345945 281.71579091 233.67824527 281.70985413 235.57302856 C281.69663035 240.65102078 281.69586583 245.72893785 281.69841743 250.80694389 C281.69949701 255.06667492 281.69457962 259.32639133 281.689812 263.58611917 C281.6787778 273.63587474 281.67824707 283.6855929 281.68432617 293.73535156 C281.69038244 304.07158847 281.67799909 314.40768983 281.6567561 324.74390364 C281.63911201 333.65992834 281.63314255 342.57590996 281.63639385 351.49195147 C281.63819988 356.79951718 281.63563726 362.10698579 281.62167931 367.41453552 C281.60905704 372.39866039 281.61108647 377.38257359 281.62409019 382.3666954 C281.62644467 384.18708749 281.62376211 386.00749471 281.61546707 387.82786942 C281.55517381 402.09505393 282.05716125 414.81929779 292 426 C299.56402688 433.28155284 308.68632935 436.33460189 319 437 C319 437.66 319 438.32 319 439 C318.24976563 439.08636719 317.49953125 439.17273438 316.7265625 439.26171875 C309.3074678 440.28020908 303.37884097 442.054898 297 446 C296.36320312 446.38542969 295.72640625 446.77085937 295.0703125 447.16796875 C288.56355185 451.86729589 284.06546751 460.99574671 282.42193127 468.71505451 C281.93718176 472.48907135 281.85821317 476.19944941 281.86628723 479.99662781 C281.86402167 480.78464132 281.86175612 481.57265483 281.85942191 482.38454753 C281.85310883 485.01638983 281.85390958 487.64818028 281.85473633 490.2800293 C281.85174291 492.17124498 281.84833996 494.06246005 281.84455872 495.95367432 C281.83572701 501.08873178 281.83338078 506.22377257 281.83274293 511.35883689 C281.83203125 514.57420063 281.82989457 517.78956017 281.82724571 521.00492287 C281.81799072 532.24392591 281.81391048 543.4829171 281.81469727 554.72192383 C281.81529613 565.15994485 281.80478247 575.59791387 281.7889536 586.03592175 C281.77581722 595.02225506 281.77051601 604.00857153 281.77115268 612.99491435 C281.77140614 618.3504 281.76864019 623.70583954 281.75797462 629.06131554 C281.74819214 634.11171656 281.74828294 639.16202844 281.75549126 644.21243286 C281.75652505 646.05083664 281.75424735 647.88924626 281.7481308 649.72764015 C281.62816138 688.33499407 290.5519669 721.80000185 314.35375977 752.72070312 C314.92795654 753.46900391 315.50215332 754.21730469 316.09375 754.98828125 C316.60615234 755.64352783 317.11855469 756.29877441 317.64648438 756.97387695 C319.14860937 759.22245836 320.07756724 761.46468585 321 764 C320.19892822 764.79059814 319.39785645 765.58119629 318.57250977 766.39575195 C315.55353802 769.37805869 312.54157181 772.36736144 309.53149414 775.35864258 C308.23679556 776.64338811 306.94029535 777.92632106 305.6418457 779.20727539 C297.9346281 786.81335621 290.65955635 794.44573141 284 803 C282.83968949 804.43712541 281.67829595 805.87337733 280.515625 807.30859375 C263.73800032 828.39102031 249.48450386 851.61509455 238 876 C237.34 876 236.68 876 236 876 C235.56171875 875.01644531 235.1234375 874.03289063 234.671875 873.01953125 C223.71478177 848.85894855 209.53456832 826.70996436 193 806 C192.27554687 805.0821875 191.55109375 804.164375 190.8046875 803.21875 C182.66229474 793.06264721 173.73528877 783.66112096 164.5625 774.4375 C163.98346924 773.85379639 163.40443848 773.27009277 162.80786133 772.66870117 C159.68484127 769.55748838 156.50952476 766.68298248 153 764 C154.46174963 759.5820863 156.90970764 756.36767688 159.8125 752.8125 C168.90524743 741.29980329 173.47877077 729.84407106 172 715 C171.40373808 712.4711716 170.76256192 710.03164994 170.01171875 707.55078125 C169.79355499 706.82164017 169.57539124 706.09249908 169.35061646 705.34126282 C166.49617726 696.05209383 163.02972605 686.98187231 159.59002686 677.89730835 C157.46373434 672.28015558 155.35826608 666.6551877 153.25 661.03125 C152.81448822 659.87098801 152.37897644 658.71072601 151.93026733 657.51530457 C147.33785397 645.2663048 142.85117827 632.97934843 138.375 620.6875 C136.78708415 616.33050083 135.19847544 611.97375476 133.609375 607.6171875 C133.22150818 606.55382172 132.83364136 605.49045593 132.434021 604.39486694 C128.52660373 593.69003709 124.58051026 582.99963659 120.625 572.3125 C120.11178192 570.92575073 120.11178192 570.92575073 119.5881958 569.51098633 C119.24407654 568.58116943 118.89995728 567.65135254 118.54541016 566.69335938 C117.84016168 564.78776323 117.13492087 562.88216424 116.4296875 560.9765625 C116.07552765 560.01965515 115.7213678 559.0627478 115.35647583 558.07684326 C110.8084697 545.78501038 106.27964884 533.4861067 101.75 521.1875 C101.30996643 519.99283112 100.86993286 518.79816223 100.41656494 517.56729126 C98.1740594 511.47899256 95.93170621 505.39063777 93.68945312 499.30224609 C91.03826867 492.10365387 88.38643422 484.90530123 85.734375 477.70703125 C85.08494431 475.94433395 85.08494431 475.94433395 84.4223938 474.14602661 C82.68385607 469.42730043 80.94529112 464.70858428 79.20672607 459.98986816 C74.67084079 447.67876151 70.13521195 435.36756063 65.60089111 423.05587769 C63.8968829 418.42912666 62.19272287 413.80243155 60.48852921 409.17574883 C59.32515075 406.01727828 58.16188745 402.85876542 56.9987793 399.70019531 C55.71554278 396.21541713 54.43201987 392.73074455 53.1484375 389.24609375 C52.77129608 388.22168686 52.39415466 387.19727997 52.00558472 386.14183044 C51.6523111 385.18293411 51.29903748 384.22403778 50.93505859 383.23608398 C50.63199799 382.41317368 50.32893738 381.59026337 50.01669312 380.74241638 C49.16159406 378.43588196 48.30058224 376.13175943 47.43645668 373.82859898 C47.16719325 373.110845 46.89792981 372.39309102 46.62050688 371.65358692 C46.41573961 371.10790324 46.21097234 370.56221955 46 370 C45.93119282 407.86075623 45.87839982 445.72150296 45.84680401 483.58230917 C45.84305231 488.06162744 45.8391693 492.54094559 45.83520508 497.02026367 C45.83441815 497.91193958 45.83363122 498.8036155 45.83282044 499.72231189 C45.8197998 514.12203173 45.79616456 528.5217153 45.76854161 542.92141368 C45.74039407 557.71902521 45.72380407 572.51661786 45.71773452 587.31425506 C45.71363737 596.43034358 45.70074147 605.54632954 45.6762506 614.66238645 C45.66027772 620.93073827 45.65562548 627.19903779 45.65949587 633.46740844 C45.66139965 637.07302959 45.658678 640.67847271 45.64238358 644.28406143 C45.55912569 663.67038069 45.98563556 682.98897323 51.6875 701.6875 C51.94241211 702.54432373 52.19732422 703.40114746 52.45996094 704.28393555 C59.21081174 726.13547979 71.1189312 744.06432348 85 762 C83.51078116 765.59827472 81.50217853 767.54613518 78.5625 770.0625 C47.30222344 797.52817651 16.97500209 836.9146326 2 876 C1.34 876 0.68 876 0 876 C-0.31469238 875.22644165 -0.31469238 875.22644165 -0.63574219 874.43725586 C-8.8837534 854.31891553 -18.15165721 834.62575476 -31 817 C-31.40428223 816.4416748 -31.80856445 815.88334961 -32.22509766 815.30810547 C-37.54032013 808.02943181 -43.30270758 801.28692563 -49.46875 794.71875 C-51.60815518 792.42087037 -53.6601899 790.08341193 -55.6875 787.6875 C-59.14195012 783.71977074 -62.96347127 780.36263945 -67 777 C-68.00160156 776.15695312 -69.00320313 775.31390625 -70.03515625 774.4453125 C-76.40424936 769.08036629 -76.40424936 769.08036629 -83 764 C-81.48217848 759.40316911 -78.84919617 755.91680334 -75.9375 752.125 C-54.09610365 722.88229564 -44.5173003 691.26105776 -44.58007812 654.96142578 C-44.57271822 652.91914919 -44.56412649 650.87687674 -44.55441284 648.83460999 C-44.5324046 643.34533822 -44.52925519 637.85621741 -44.53116035 632.3669076 C-44.53128088 627.76677962 -44.52268476 623.16668271 -44.51438284 618.56656349 C-44.49522812 607.71329942 -44.4922379 596.86011226 -44.49902344 586.00683594 C-44.50567775 574.83781912 -44.4827256 563.6691314 -44.44570971 552.50018132 C-44.41497674 542.87506281 -44.40365601 533.25005009 -44.40754652 523.62488353 C-44.40960807 517.89133233 -44.40422455 512.1580382 -44.37965393 506.42453384 C-44.35732623 501.03814915 -44.35931484 495.65230057 -44.37958145 490.26591301 C-44.38297937 488.29716382 -44.37795533 486.32837804 -44.36359787 484.35967827 C-44.27912999 471.91331767 -45.22097492 462.44965674 -52.125 451.6875 C-60.69375444 443.67757737 -69.51150541 440.20931522 -81 439 C-81 438.34 -81 437.68 -81 437 C-79.90945313 436.88785156 -79.90945313 436.88785156 -78.796875 436.7734375 C-67.95963664 435.35626018 -58.32012387 431.898426 -51.3984375 423.0859375 C-46.43159766 415.6772993 -44.84980553 409.59022304 -44.85955811 400.69892883 C-44.85658698 399.85404331 -44.85361586 399.00915779 -44.8505547 398.13866967 C-44.84187109 395.30247877 -44.84035969 392.4663301 -44.83886719 389.63012695 C-44.83423846 387.59803172 -44.82921372 385.56593735 -44.82382202 383.53384399 C-44.81069381 378.00625652 -44.80425123 372.4786812 -44.79981136 366.95108056 C-44.79687888 363.49285421 -44.79277354 360.03463116 -44.78830719 356.57640648 C-44.77462578 345.74335823 -44.76496455 334.91031756 -44.7611053 324.07726127 C-44.75663495 311.59856173 -44.7391374 299.1199723 -44.7101047 286.64130622 C-44.68841852 276.9824388 -44.67839718 267.32360218 -44.67706418 257.6647107 C-44.67602031 251.90346334 -44.67020305 246.14231938 -44.65224457 240.38109779 C-44.63564566 234.94986368 -44.63366521 229.51880934 -44.64238358 224.08755875 C-44.6431479 222.10640796 -44.63889224 220.12524704 -44.62892532 218.14412117 C-44.5551755 202.5556208 -46.07583223 187.88936999 -50.75 172.9375 C-51.00676514 172.10516846 -51.26353027 171.27283691 -51.52807617 170.4152832 C-57.44340146 151.79045902 -66.50087124 135.69508591 -78.92236328 120.63305664 C-79.46618652 119.95621826 -80.01000977 119.27937988 -80.5703125 118.58203125 C-81.06289551 117.98624268 -81.55547852 117.3904541 -82.06298828 116.77661133 C-83 115 -83 115 -82.83227539 112.95898438 C-81.88533383 110.73010227 -80.92520216 109.66911368 -79.11328125 108.07421875 C-78.51161133 107.5328125 -77.90994141 106.99140625 -77.29003906 106.43359375 C-76.63745117 105.85738281 -75.98486328 105.28117187 -75.3125 104.6875 C-63.49922435 93.94506804 -52.92783433 82.40195186 -43.28369141 69.68212891 C-42.02178316 68.02854431 -40.73959343 66.3931529 -39.44921875 64.76171875 C-23.78752682 44.8901883 -10.81814727 22.84577685 0 0 Z"></path>
<path transform="translate(421,98)" fill="#000000" d="M0 0 C0.66 0 1.32 0 2 0 C3.16650391 1.3190918 3.16650391 1.3190918 4.4765625 3.19921875 C4.97438232 3.90336914 5.47220215 4.60751953 5.98510742 5.33300781 C6.79685425 6.49848145 6.79685425 6.49848145 7.625 7.6875 C12.67538259 14.81896997 17.86206002 21.8215679 23.1875 28.75 C27.67546681 34.59352462 32.09296142 40.45967806 36.3125 46.5 C58.42418386 77.970175 88.8363652 98.52722012 126 108 C127.27101563 108.33 128.54203125 108.66 129.8515625 109 C145.21718795 112.30854047 161.34898083 111.75744204 177 112 C175.66340544 114.82771326 174.15643507 117.3118935 172.3125 119.8359375 C171.51936401 120.92636353 171.51936401 120.92636353 170.71020508 122.03881836 C170.1458374 122.8097583 169.58146973 123.58069824 169 124.375 C168.41694092 125.1801001 167.83388184 125.9852002 167.2331543 126.81469727 C164.60633052 130.44091479 161.96763513 134.05535915 159.26953125 137.62890625 C141.45207481 161.4505251 129.84523702 191.3152246 129.85282898 221.29096985 C129.84731395 222.48402018 129.84731395 222.48402018 129.8416875 223.70117253 C129.83074336 226.34546617 129.82682279 228.9897204 129.82299805 231.6340332 C129.81672658 233.5385246 129.81007918 235.44301478 129.80308533 237.34750366 C129.78213071 243.581921 129.77169371 249.81633834 129.76171875 256.05078125 C129.75766853 258.2025828 129.75355153 260.35438423 129.74936867 262.50618553 C129.73033902 272.6141204 129.71610111 282.72204805 129.7077567 292.82999736 C129.69798044 304.47788719 129.67164131 316.12558719 129.63125581 327.77341014 C129.60106436 336.79192936 129.58628511 345.81039422 129.58297569 354.82896298 C129.58062951 360.20882342 129.57172448 365.58848051 129.54651451 370.96828651 C129.52317451 376.0302502 129.5190244 381.09187745 129.52927589 386.15388107 C129.52976985 388.00533228 129.52349097 389.8568004 129.50971985 391.70820045 C129.418391 404.72044344 130.24213438 415.55306125 138.94140625 425.9921875 C146.59179914 433.45386102 155.63842228 436.12502233 166 437 C166 437.66 166 438.32 166 439 C165.31035156 439.09796875 164.62070312 439.1959375 163.91015625 439.296875 C151.77963856 441.22710827 142.84506899 445.52302318 135.1875 455.375 C128.96474938 465.1891867 129.57145078 475.44527047 129.61181641 486.62060547 C129.60774681 488.51226606 129.60240275 490.40392426 129.59588623 492.295578 C129.58224371 497.41811785 129.58750114 502.54047579 129.59702349 507.6630187 C129.60464708 513.04464788 129.59756596 518.42626202 129.59286499 523.80789185 C129.5874106 532.85470352 129.59458587 541.90144169 129.60888672 550.94824219 C129.62516322 561.36421099 129.61995989 571.78000314 129.6034075 582.19596756 C129.58972444 591.16963537 129.58790756 600.14325046 129.59572351 609.11692536 C129.60036912 614.46231669 129.60111259 619.8076255 129.59111404 625.15301132 C129.58234871 630.19119435 129.58863799 635.22915374 129.60579681 640.267313 C129.60971334 642.10087656 129.60871238 643.93445943 129.60200882 645.76801491 C129.55053083 661.2992772 130.87485571 676.83501737 135.5 691.75 C135.74572754 692.55308594 135.99145508 693.35617187 136.24462891 694.18359375 C141.13495982 709.29127481 148.39786154 724.33349678 158 737 C158.61133789 737.81307617 159.22267578 738.62615234 159.85253906 739.46386719 C163.97529049 744.93714195 168.13192836 750.38332954 172.31762695 755.80859375 C173.15040161 756.89333984 173.15040161 756.89333984 174 758 C174.5674292 758.71285156 175.1348584 759.42570313 175.71948242 760.16015625 C177 762 177 762 177 764 C175.68733154 764.02187378 175.68733154 764.02187378 174.34814453 764.04418945 C150.49964449 764.32549702 150.49964449 764.32549702 127 768 C126.27780273 768.16483887 125.55560547 768.32967773 124.81152344 768.49951172 C82.68677289 778.35170889 53.60423205 805.46244698 28.82763672 839.49462891 C25.83884698 843.59173821 22.82432406 847.66981202 19.8125 851.75 C13.86135222 859.82334009 7.92648047 867.90853993 2 876 C-1.85218317 874.71593894 -3.01408028 872.47220805 -5.1875 869.25 C-9.55829606 862.94649386 -14.13690996 856.8303812 -18.8125 850.75 C-23.98092034 844.02193282 -29.02413735 837.22879468 -33.9375 830.3125 C-38.01059214 824.59915763 -42.20667254 819.20284704 -47.03125 814.08984375 C-48.90444857 812.1014286 -50.63527901 810.04239828 -52.375 807.9375 C-74.07958652 783.2101286 -110.8199965 768.19901302 -143 765 C-145.59220153 764.86160224 -148.18639002 764.75683577 -150.78125 764.68359375 C-151.48020386 764.66281265 -152.17915771 764.64203156 -152.89929199 764.62062073 C-155.09944259 764.55601465 -157.29969696 764.49666091 -159.5 764.4375 C-161.00521842 764.39422983 -162.51042693 764.35061307 -164.015625 764.30664062 C-167.67697744 764.20042681 -171.33844234 764.09891804 -175 764 C-173.66340544 761.17228674 -172.15643507 758.6881065 -170.3125 756.1640625 C-169.78374268 755.43711182 -169.25498535 754.71016113 -168.71020508 753.96118164 C-167.86365356 752.80477173 -167.86365356 752.80477173 -167 751.625 C-166.12541138 750.41734985 -166.12541138 750.41734985 -165.2331543 749.18530273 C-162.60633052 745.55908521 -159.96763513 741.94464085 -157.26953125 738.37109375 C-139.20298506 714.21644638 -127.84505474 684.15229005 -127.85282898 653.78495789 C-127.84915229 652.99775811 -127.8454756 652.21055833 -127.8416875 651.39950401 C-127.83074499 648.78284936 -127.82682307 646.16623454 -127.82299805 643.54956055 C-127.81672646 641.66477332 -127.81007905 639.77998732 -127.80308533 637.89520264 C-127.78213219 631.72571662 -127.77169385 625.5562306 -127.76171875 619.38671875 C-127.75766848 617.2572052 -127.75355147 615.12769178 -127.74936867 612.99817848 C-127.73033935 602.99489509 -127.71610137 592.991619 -127.7077567 582.98832101 C-127.69798055 571.46155136 -127.67164155 559.93497355 -127.63125581 548.40827149 C-127.6010631 539.48316974 -127.58628499 530.55812292 -127.58297569 521.63297111 C-127.58062966 516.30900112 -127.57172655 510.98523661 -127.54651451 505.66132164 C-127.52317228 500.65188658 -127.51902528 495.64279147 -127.52927589 490.63331604 C-127.5297698 488.8012154 -127.52349252 486.96909766 -127.50971985 485.13704872 C-127.41733224 472.11286218 -128.1119535 460.15756973 -137.71484375 450.2265625 C-145.50080652 442.91854992 -153.57861845 440.48042056 -164 439 C-164 438.34 -164 437.68 -164 437 C-163.24976563 436.91363281 -162.49953125 436.82726562 -161.7265625 436.73828125 C-151.7753711 435.3721857 -141.9236167 432.24920581 -135.4765625 424.06640625 C-127.62116605 413.01137271 -127.56447947 402.50694887 -127.61181641 389.47119141 C-127.60774676 387.58938289 -127.60240268 385.70757678 -127.59588623 383.82577515 C-127.58224421 378.73009363 -127.58750095 373.63459498 -127.59702349 368.53891039 C-127.6046474 363.18530841 -127.59756587 357.83172153 -127.59286499 352.4781189 C-127.58741066 343.47838552 -127.59458567 334.47872605 -127.60888672 325.47900391 C-127.62516295 315.11756636 -127.61996006 304.7563064 -127.6034075 294.39487326 C-127.58972394 285.46791411 -127.58790781 276.54100796 -127.59572351 267.61404169 C-127.60036888 262.29659588 -127.60111328 256.97923303 -127.59111404 251.66179276 C-127.58234797 246.64987413 -127.58863928 241.63818029 -127.60579681 236.62628555 C-127.60971297 234.80239736 -127.60871305 232.97848975 -127.60200882 231.15460968 C-127.54965958 215.44523789 -128.94060885 199.85632847 -133.75 184.8125 C-134.00604004 183.98991699 -134.26208008 183.16733398 -134.52587891 182.31982422 C-141.82887757 159.5392226 -154.5222435 141.05361567 -168.90234375 122.19140625 C-169.32588135 121.63340332 -169.74941895 121.07540039 -170.18579102 120.50048828 C-171.29215682 119.04638156 -172.40744523 117.59907555 -173.5234375 116.15234375 C-175 114 -175 114 -175 112 C-174.05906494 111.98541748 -173.11812988 111.97083496 -172.14868164 111.95581055 C-147.86626915 111.87066717 -147.86626915 111.87066717 -124 108 C-123.24750977 107.8134082 -122.49501953 107.62681641 -121.71972656 107.43457031 C-82.09520082 97.42097984 -53.30193903 72.83941946 -29.73583984 40.37792969 C-27.19159746 36.89256811 -24.59835374 33.44510161 -22 30 C-17.42517937 23.92017132 -12.89040849 17.81158071 -8.375 11.6875 C-7.77042969 10.86830078 -7.16585937 10.04910156 -6.54296875 9.20507812 C-5.97964844 8.44001953 -5.41632813 7.67496094 -4.8359375 6.88671875 C-4.33626465 6.20826904 -3.8365918 5.52981934 -3.32177734 4.83081055 C-2.17786747 3.24636648 -1.08400863 1.62601294 0 0 Z M-18 156 C-19.34964844 156.60328125 -19.34964844 156.60328125 -20.7265625 157.21875 C-23.69350575 158.68996153 -26.29340274 160.07546879 -29 162 C-30.09633529 162.70490919 -30.09633529 162.70490919 -31.21481878 163.42405897 C-35.49853386 166.77682915 -38.08787163 169.88239333 -38.84107435 175.32406032 C-39.2886452 180.97353794 -39.20546701 186.62526574 -39.14958191 192.28770447 C-39.16067111 194.49101087 -39.17567955 196.69430044 -39.19426519 198.89755636 C-39.2337844 204.94676791 -39.21713797 210.99471953 -39.19118106 217.04395664 C-39.17476613 222.89933658 -39.200566 228.75443225 -39.22497288 234.609762 C-39.27620961 247.32337894 -39.27585166 260.03660191 -39.2533042 272.7502791 C-39.23364846 283.87679918 -39.23031591 295.00317124 -39.24328041 306.12970161 C-39.244113 306.86794089 -39.24494559 307.60618017 -39.24580341 308.36679033 C-39.24918727 311.36360604 -39.25262406 314.36042167 -39.256155 317.35723721 C-39.28889431 345.46701996 -39.26833937 373.5765471 -39.2245188 401.68630252 C-39.18594508 426.65456077 -39.19684501 451.62234593 -39.2487793 476.59057617 C-39.30698847 504.64763843 -39.33256278 532.70442976 -39.30691797 560.76155001 C-39.30427763 563.75319415 -39.3017262 566.74483836 -39.29921913 569.73648262 C-39.29857486 570.47309224 -39.29793058 571.20970187 -39.29726679 571.96863299 C-39.28814231 583.08689477 -39.30409048 594.20494001 -39.33238792 605.32316399 C-39.36445683 617.96740609 -39.36100432 630.61107938 -39.31063255 643.25527351 C-39.28633015 649.70740481 -39.2780805 656.15849438 -39.31317902 662.61059952 C-39.34486372 668.51740801 -39.33037656 674.42223722 -39.27907447 680.32889134 C-39.26859865 682.4653801 -39.27498435 684.60203202 -39.29994085 686.73840069 C-39.73650555 700.08011534 -39.73650555 700.08011534 -33.28043079 711.12357426 C-22.50342459 719.93530396 -9.32486678 724.6041603 4.625 723.9375 C15.52870017 722.67887118 24.60045781 719.11348788 33 712 C33.57395791 711.534297 34.14791582 711.068594 34.7392664 710.58877879 C38.13380184 707.58418201 40.40120175 705.34337723 40.87974548 700.71694291 C40.91750468 699.08644059 40.91733409 697.4547766 40.88647461 695.8241291 C40.89724789 694.91715702 40.90802117 694.01018493 40.91912091 693.07572883 C40.94670837 690.03170658 40.92440051 686.99011314 40.90234375 683.94607544 C40.91184047 681.74379014 40.92438251 679.54151622 40.93971062 677.3392638 C40.97286713 671.28377845 40.96221858 665.2290365 40.94439077 659.17351556 C40.93389088 653.31480418 40.95616966 647.45627736 40.97735338 641.59760836 C41.02196386 628.87428587 41.02618907 616.15118861 41.01288407 603.42780882 C41.00125629 592.29221428 41.00179343 581.15670793 41.0145874 570.02111435 C41.0162556 568.52768408 41.01792234 567.03425381 41.01958764 565.54082354 C41.02211595 563.29038259 41.02465692 561.03994166 41.02723301 558.78950076 C41.05092107 537.86516856 41.06075583 516.94086584 41.04122925 496.01652718 C41.0404941 495.22766887 41.03975896 494.43881057 41.03900154 493.62604748 C41.03294572 487.21987607 41.02649939 480.81370504 41.02002648 474.40753404 C40.99507726 449.41950821 41.01220861 424.43183028 41.06347656 399.44384766 C41.12097108 371.37108349 41.14879673 343.29852684 41.1314888 315.22570217 C41.12973595 312.23264054 41.12807434 309.23957888 41.12646484 306.24651718 C41.12604615 305.50954713 41.12562745 304.77257709 41.12519607 304.01327461 C41.11945192 292.88618602 41.13674062 281.75928472 41.16552734 270.63223648 C41.19819719 257.97808703 41.19919759 245.32438595 41.15810478 232.6702515 C41.13841113 226.21224175 41.13323566 219.75508179 41.16705704 213.29711151 C41.19762263 207.38610676 41.18671238 201.47669013 41.14260101 195.56578432 C41.13392924 193.42655346 41.14047604 191.28719606 41.1637001 189.14807369 C41.72807737 176.17375653 41.72807737 176.17375653 35.64450073 165.31449699 C33.33719799 163.44308326 33.33719799 163.44308326 31 162 C30.10112155 161.36777391 30.10112155 161.36777391 29.18408394 160.72277558 C27.35757663 159.48788298 27.35757663 159.48788298 24.4375 158.0625 C23.40496094 157.51722656 22.37242187 156.97195312 21.30859375 156.41015625 C14.60792323 153.55426244 8.38026119 152.63310691 1.125 152.6875 C0.33343506 152.69313965 -0.45812988 152.6987793 -1.27368164 152.70458984 C-7.27559882 152.8290266 -12.47950401 153.51295061 -18 156 Z"></path>
<path transform="translate(123,98)" fill="#000000" d="M0 0 C0.66 0 1.32 0 2 0 C2.25579834 0.63800537 2.51159668 1.27601074 2.77514648 1.93334961 C20.46771006 45.82777611 46.45551628 83.83712508 85 112 C83.48217848 116.59683089 80.84919617 120.08319666 77.9375 123.875 C53.82599808 156.15707167 45.86206614 191.07231995 45.83886719 230.91040039 C45.83422867 232.78445023 45.82920265 234.65849914 45.82382202 236.532547 C45.81080341 241.58614041 45.80427494 246.63972061 45.79981136 251.69332814 C45.79686607 254.85724959 45.79275883 258.02116754 45.78830719 261.1850872 C45.77466575 271.10452984 45.76498034 281.02396434 45.7611053 290.9434157 C45.75661983 302.35858965 45.73903512 313.77364416 45.7101047 325.1887818 C45.6884543 334.04096533 45.67839938 342.89311531 45.67706418 351.74532503 C45.67601942 357.02058716 45.6701806 362.29573648 45.65224457 367.57097054 C45.63570356 372.53118828 45.63363753 377.49120904 45.64238358 382.45144463 C45.64315048 384.26377263 45.63885738 386.07611152 45.62892532 387.88841248 C45.55545422 402.13796885 46.07003701 414.83377656 56 426 C63.56402688 433.28155284 72.68632935 436.33460189 83 437 C83 437.66 83 438.32 83 439 C82.24976563 439.08636719 81.49953125 439.17273438 80.7265625 439.26171875 C70.78280215 440.62679416 62.15378757 443.68362635 55 451 C45.69594858 463.39016184 45.55951484 476.87297472 45.62768555 491.68579102 C45.62525311 493.54833682 45.62152942 495.41088131 45.61662292 497.27342224 C45.60726761 502.30282321 45.61659661 507.33202769 45.62995505 512.36141324 C45.64133986 517.65093055 45.63715633 522.94043916 45.63520813 528.22996521 C45.63432683 537.11761651 45.64536676 546.0051913 45.66381836 554.89282227 C45.68493776 565.1230768 45.68850452 575.35321899 45.6822564 585.58349091 C45.67652987 595.47089192 45.68224984 605.35825394 45.69342995 615.24564934 C45.69803728 619.43053863 45.69896667 623.61540376 45.6968441 627.80029488 C45.69493839 632.7473748 45.7032374 637.69434302 45.7189045 642.64139748 C45.72309134 644.44109891 45.72403652 646.24081181 45.72121429 648.0405159 C45.7004368 663.68121113 46.36937868 679.46364497 50.25 694.6875 C50.46760986 695.56067871 50.68521973 696.43385742 50.90942383 697.33349609 C56.19421302 717.83900308 65.39687161 736.02370932 78.35351562 752.77075195 C78.92779297 753.51413818 79.50207031 754.25752441 80.09375 755.0234375 C80.60615234 755.67231934 81.11855469 756.32120117 81.64648438 756.98974609 C83.15554251 759.23101317 84.07919507 761.46668764 85 764 C84.54262451 764.4218457 84.08524902 764.84369141 83.61401367 765.27832031 C74.33790164 773.85735656 65.30638046 782.46494077 57 792 C56.56026855 792.50031738 56.12053711 793.00063477 55.66748047 793.51611328 C33.71084561 818.56545416 17.13075302 846.44762558 2 876 C1.34 876 0.68 876 0 876 C-0.43828125 874.82308594 -0.8765625 873.64617188 -1.328125 872.43359375 C-8.20596419 854.39408881 -16.52928924 836.61115147 -28 821 C-28.44843262 820.3807666 -28.89686523 819.7615332 -29.35888672 819.12353516 C-34.90585826 811.47701751 -40.56284751 804.05912985 -47.01171875 797.140625 C-48.79007842 795.22600594 -50.45699938 793.26004632 -52.125 791.25 C-61.17624266 780.89672244 -71.77781649 771.89941409 -83 764 C-81.5525993 759.67370342 -79.21496199 756.49529682 -76.375 753 C-52.15571102 722.24666721 -43.84269588 687.37302009 -43.85473633 648.90185547 C-43.85173982 646.98382502 -43.84833616 645.06579518 -43.84455872 643.14776611 C-43.83576832 637.96615703 -43.83338281 632.78456449 -43.83274293 627.60294867 C-43.83203004 624.36167194 -43.82989128 621.12039937 -43.82724571 617.87912369 C-43.81801137 606.5608519 -43.81390876 595.24259184 -43.81469727 583.92431641 C-43.81529876 573.38885808 -43.80472799 562.85345084 -43.7889536 552.31800544 C-43.7758697 543.25529518 -43.77051367 534.19260161 -43.77115268 525.12988198 C-43.77140725 519.7244875 -43.76857797 514.31913854 -43.75797462 508.91375351 C-43.7482784 503.8329487 -43.74822493 498.75223285 -43.75549126 493.67142487 C-43.75653493 491.81107834 -43.75418714 489.95072622 -43.7481308 488.09038925 C-43.74037761 485.54321858 -43.74507738 482.99635265 -43.75276184 480.44918823 C-43.74761828 479.72028126 -43.74247471 478.99137428 -43.73717529 478.24037921 C-43.80723902 467.66893557 -46.78268644 457.94224555 -53.85546875 449.88671875 C-61.7951265 442.48588008 -70.44536839 440.35727919 -81 439 C-81 438.34 -81 437.68 -81 437 C-79.78376953 436.88785156 -79.78376953 436.88785156 -78.54296875 436.7734375 C-67.4044573 435.45082031 -58.54034016 432.03127216 -51.4296875 423.06640625 C-45.58703079 414.62169205 -43.686046 405.79072992 -43.73930359 395.62483215 C-43.73547804 394.83228851 -43.73165249 394.03974488 -43.72771102 393.22318476 C-43.71747476 390.59378876 -43.72135535 387.96461498 -43.7253418 385.33520508 C-43.72098974 383.438561 -43.71580495 381.54191867 -43.70985413 379.64527893 C-43.69649601 374.508115 -43.69588264 369.37102481 -43.69841743 364.2338469 C-43.69949077 359.92838922 -43.69459373 355.62294623 -43.689812 351.31749171 C-43.67872465 341.14141876 -43.678273 330.96538271 -43.68432617 320.78930664 C-43.69034569 310.34273104 -43.67810476 299.89629083 -43.6567561 289.44973832 C-43.63903965 280.44460794 -43.63315504 271.43952022 -43.63639385 262.43437308 C-43.63819327 257.07266956 -43.63570771 251.71106229 -43.62167931 246.34937477 C-43.60894367 241.29231703 -43.61119086 236.23546668 -43.62409019 231.17841148 C-43.62642296 229.34126586 -43.62384295 227.50410494 -43.61546707 225.66697693 C-43.53725197 207.14801711 -45.30102312 188.69989407 -51 171 C-51.19932129 170.3802832 -51.39864258 169.76056641 -51.60400391 169.12207031 C-57.15282863 152.26628714 -65.51032739 137.24455444 -76.35351562 123.22924805 C-76.92779297 122.48586182 -77.50207031 121.74247559 -78.09375 120.9765625 C-78.86235352 120.00323975 -78.86235352 120.00323975 -79.64648438 119.01025391 C-81.15554251 116.76898683 -82.07919507 114.53331236 -83 112 C-82.44054687 111.51273437 -81.88109375 111.02546875 -81.3046875 110.5234375 C-70.94112797 101.3595183 -60.80626092 91.68809676 -52 81 C-51.33049316 80.20118408 -51.33049316 80.20118408 -50.64746094 79.38623047 C-31.54147407 56.5675614 -9.5226478 28.5679434 0 0 Z"></path>
</svg>
